<mxfile host="app.diagrams.net" agent="Mozilla/5.0 (Windows NT 10.0; Win64; x64; rv:134.0) Gecko/20100101 Firefox/134.0" version="26.0.11">
  <diagram name="Page-1" id="OAi5JnlfZE8rosgQFHix">
    <mxGraphModel dx="3218" dy="1104" grid="1" gridSize="10" guides="1" tooltips="1" connect="1" arrows="1" fold="1" page="1" pageScale="1" pageWidth="1169" pageHeight="827" math="0" shadow="0">
      <root>
        <mxCell id="0" />
        <mxCell id="1" parent="0" />
        <mxCell id="kC94TBG2oEabijI7ujuf-8" value="&lt;font style=&quot;font-size: 25px;&quot;&gt;Hosting Server&lt;/font&gt;" style="swimlane;whiteSpace=wrap;html=1;startSize=40;" vertex="1" parent="1">
          <mxGeometry x="40" y="40" width="1000" height="440" as="geometry" />
        </mxCell>
        <mxCell id="kKDFoNvPjo7TuK5ONDfq-2" value="PostgreSQL" style="shape=cylinder3;whiteSpace=wrap;html=1;boundedLbl=1;backgroundOutline=1;size=15;" parent="kC94TBG2oEabijI7ujuf-8" vertex="1">
          <mxGeometry x="200" y="200" width="120" height="80" as="geometry" />
        </mxCell>
        <mxCell id="kC94TBG2oEabijI7ujuf-22" style="edgeStyle=orthogonalEdgeStyle;rounded=0;orthogonalLoop=1;jettySize=auto;html=1;exitX=0;exitY=0.5;exitDx=0;exitDy=0;" edge="1" parent="kC94TBG2oEabijI7ujuf-8" source="kKDFoNvPjo7TuK5ONDfq-4" target="kKDFoNvPjo7TuK5ONDfq-2">
          <mxGeometry relative="1" as="geometry" />
        </mxCell>
        <mxCell id="kKDFoNvPjo7TuK5ONDfq-4" value="&lt;div&gt;Catalog Service&lt;/div&gt;&lt;div&gt;(DB Access)&lt;br&gt;&lt;/div&gt;" style="rounded=1;whiteSpace=wrap;html=1;" parent="kC94TBG2oEabijI7ujuf-8" vertex="1">
          <mxGeometry x="360" y="200" width="120" height="80" as="geometry" />
        </mxCell>
        <mxCell id="kC94TBG2oEabijI7ujuf-21" style="edgeStyle=orthogonalEdgeStyle;rounded=0;orthogonalLoop=1;jettySize=auto;html=1;exitX=0;exitY=0.5;exitDx=0;exitDy=0;entryX=1;entryY=0.5;entryDx=0;entryDy=0;" edge="1" parent="kC94TBG2oEabijI7ujuf-8" source="kKDFoNvPjo7TuK5ONDfq-6" target="kKDFoNvPjo7TuK5ONDfq-4">
          <mxGeometry relative="1" as="geometry" />
        </mxCell>
        <mxCell id="kKDFoNvPjo7TuK5ONDfq-6" value="Overview Backend Service" style="rounded=1;whiteSpace=wrap;html=1;" parent="kC94TBG2oEabijI7ujuf-8" vertex="1">
          <mxGeometry x="520" y="80" width="120" height="80" as="geometry" />
        </mxCell>
        <mxCell id="kC94TBG2oEabijI7ujuf-20" style="edgeStyle=orthogonalEdgeStyle;rounded=0;orthogonalLoop=1;jettySize=auto;html=1;exitX=0;exitY=0.5;exitDx=0;exitDy=0;" edge="1" parent="kC94TBG2oEabijI7ujuf-8" source="kKDFoNvPjo7TuK5ONDfq-7" target="kKDFoNvPjo7TuK5ONDfq-4">
          <mxGeometry relative="1" as="geometry" />
        </mxCell>
        <mxCell id="kKDFoNvPjo7TuK5ONDfq-7" value="Client Backend Service" style="rounded=1;whiteSpace=wrap;html=1;" parent="kC94TBG2oEabijI7ujuf-8" vertex="1">
          <mxGeometry x="520" y="200" width="120" height="80" as="geometry" />
        </mxCell>
        <mxCell id="kC94TBG2oEabijI7ujuf-19" style="edgeStyle=orthogonalEdgeStyle;rounded=0;orthogonalLoop=1;jettySize=auto;html=1;exitX=0;exitY=0.5;exitDx=0;exitDy=0;entryX=1;entryY=0.5;entryDx=0;entryDy=0;" edge="1" parent="kC94TBG2oEabijI7ujuf-8" source="kKDFoNvPjo7TuK5ONDfq-8" target="kKDFoNvPjo7TuK5ONDfq-4">
          <mxGeometry relative="1" as="geometry" />
        </mxCell>
        <mxCell id="kKDFoNvPjo7TuK5ONDfq-8" value="Prospects Backend Service" style="rounded=1;whiteSpace=wrap;html=1;" parent="kC94TBG2oEabijI7ujuf-8" vertex="1">
          <mxGeometry x="520" y="320" width="120" height="80" as="geometry" />
        </mxCell>
        <mxCell id="kC94TBG2oEabijI7ujuf-16" style="edgeStyle=orthogonalEdgeStyle;rounded=0;orthogonalLoop=1;jettySize=auto;html=1;exitX=0;exitY=0.5;exitDx=0;exitDy=0;entryX=1;entryY=0.5;entryDx=0;entryDy=0;" edge="1" parent="kC94TBG2oEabijI7ujuf-8" source="kKDFoNvPjo7TuK5ONDfq-12" target="kKDFoNvPjo7TuK5ONDfq-7">
          <mxGeometry relative="1" as="geometry" />
        </mxCell>
        <mxCell id="kC94TBG2oEabijI7ujuf-17" style="edgeStyle=orthogonalEdgeStyle;rounded=0;orthogonalLoop=1;jettySize=auto;html=1;exitX=0;exitY=0.5;exitDx=0;exitDy=0;entryX=1;entryY=0.5;entryDx=0;entryDy=0;" edge="1" parent="kC94TBG2oEabijI7ujuf-8" source="kKDFoNvPjo7TuK5ONDfq-12" target="kKDFoNvPjo7TuK5ONDfq-8">
          <mxGeometry relative="1" as="geometry" />
        </mxCell>
        <mxCell id="kC94TBG2oEabijI7ujuf-18" style="edgeStyle=orthogonalEdgeStyle;rounded=0;orthogonalLoop=1;jettySize=auto;html=1;exitX=0;exitY=0.5;exitDx=0;exitDy=0;entryX=1;entryY=0.5;entryDx=0;entryDy=0;" edge="1" parent="kC94TBG2oEabijI7ujuf-8" source="kKDFoNvPjo7TuK5ONDfq-12" target="kKDFoNvPjo7TuK5ONDfq-6">
          <mxGeometry relative="1" as="geometry" />
        </mxCell>
        <mxCell id="kKDFoNvPjo7TuK5ONDfq-12" value="Front End Service" style="rounded=1;whiteSpace=wrap;html=1;" parent="kC94TBG2oEabijI7ujuf-8" vertex="1">
          <mxGeometry x="680" y="200" width="120" height="80" as="geometry" />
        </mxCell>
        <mxCell id="kC94TBG2oEabijI7ujuf-15" style="edgeStyle=orthogonalEdgeStyle;rounded=0;orthogonalLoop=1;jettySize=auto;html=1;exitX=0;exitY=0.5;exitDx=0;exitDy=0;entryX=1;entryY=0.5;entryDx=0;entryDy=0;" edge="1" parent="kC94TBG2oEabijI7ujuf-8" source="kC94TBG2oEabijI7ujuf-9" target="kKDFoNvPjo7TuK5ONDfq-12">
          <mxGeometry relative="1" as="geometry" />
        </mxCell>
        <mxCell id="kC94TBG2oEabijI7ujuf-9" value="Loadbalancer Gateway" style="rounded=1;whiteSpace=wrap;html=1;" vertex="1" parent="kC94TBG2oEabijI7ujuf-8">
          <mxGeometry x="840" y="200" width="120" height="80" as="geometry" />
        </mxCell>
        <mxCell id="kKDFoNvPjo7TuK5ONDfq-1" value="API to DB Service" style="rounded=1;whiteSpace=wrap;html=1;" parent="kC94TBG2oEabijI7ujuf-8" vertex="1">
          <mxGeometry x="40" y="200" width="120" height="80" as="geometry" />
        </mxCell>
        <mxCell id="kC94TBG2oEabijI7ujuf-23" style="edgeStyle=orthogonalEdgeStyle;rounded=0;orthogonalLoop=1;jettySize=auto;html=1;exitX=1;exitY=0.5;exitDx=0;exitDy=0;entryX=0;entryY=0.5;entryDx=0;entryDy=0;entryPerimeter=0;" edge="1" parent="kC94TBG2oEabijI7ujuf-8" source="kKDFoNvPjo7TuK5ONDfq-1" target="kKDFoNvPjo7TuK5ONDfq-2">
          <mxGeometry relative="1" as="geometry" />
        </mxCell>
        <mxCell id="kC94TBG2oEabijI7ujuf-11" value="&lt;font style=&quot;font-size: 25px;&quot;&gt;Intact&lt;/font&gt;" style="swimlane;whiteSpace=wrap;html=1;startSize=40;" vertex="1" parent="1">
          <mxGeometry x="-160" y="40" width="200" height="440" as="geometry" />
        </mxCell>
        <mxCell id="kC94TBG2oEabijI7ujuf-6" value="Intact API" style="shape=hexagon;perimeter=hexagonPerimeter2;whiteSpace=wrap;html=1;fixedSize=1;" vertex="1" parent="kC94TBG2oEabijI7ujuf-11">
          <mxGeometry x="40" y="200" width="120" height="80" as="geometry" />
        </mxCell>
        <mxCell id="kC94TBG2oEabijI7ujuf-12" style="edgeStyle=orthogonalEdgeStyle;rounded=0;orthogonalLoop=1;jettySize=auto;html=1;exitX=1;exitY=0.5;exitDx=0;exitDy=0;entryX=0;entryY=0.5;entryDx=0;entryDy=0;" edge="1" parent="1" source="kC94TBG2oEabijI7ujuf-6" target="kKDFoNvPjo7TuK5ONDfq-1">
          <mxGeometry relative="1" as="geometry" />
        </mxCell>
        <mxCell id="kC94TBG2oEabijI7ujuf-13" value="&lt;font style=&quot;font-size: 25px;&quot;&gt;Host Client&lt;/font&gt;" style="swimlane;whiteSpace=wrap;html=1;startSize=40;" vertex="1" parent="1">
          <mxGeometry x="1040" y="40" width="200" height="440" as="geometry" />
        </mxCell>
        <mxCell id="kC94TBG2oEabijI7ujuf-1" value="End User Client" style="rounded=1;whiteSpace=wrap;html=1;" vertex="1" parent="kC94TBG2oEabijI7ujuf-13">
          <mxGeometry x="40" y="200" width="120" height="80" as="geometry" />
        </mxCell>
        <mxCell id="kC94TBG2oEabijI7ujuf-14" style="edgeStyle=orthogonalEdgeStyle;rounded=0;orthogonalLoop=1;jettySize=auto;html=1;exitX=0;exitY=0.5;exitDx=0;exitDy=0;entryX=1;entryY=0.5;entryDx=0;entryDy=0;" edge="1" parent="1" source="kC94TBG2oEabijI7ujuf-1" target="kC94TBG2oEabijI7ujuf-9">
          <mxGeometry relative="1" as="geometry" />
        </mxCell>
      </root>
    </mxGraphModel>
  </diagram>
</mxfile>
